<svg width="100%" height="100%" viewBox="0 0 1200 1200" version="1.1"
    xmlns="http://www.w3.org/2000/svg"
    xmlns:xlink="http://www.w3.org/1999/xlink" xml:space="preserve"
    xmlns:serif="http://www.serif.com/" style="fill-rule:evenodd;clip-rule:evenodd;stroke-linejoin:round;stroke-miterlimit:2;">
    <g transform="matrix(1.1026,0,0,1.07314,-92.7746,-50.6329)">
        <path d="M1172.48,136.64C1172.48,87.267 1133.46,47.182 1085.41,47.182L171.208,47.182C123.155,47.182 84.142,87.267 84.142,136.64L84.142,1075.94C84.142,1125.32 123.155,1165.4 171.208,1165.4L1085.41,1165.4C1133.46,1165.4 1172.48,1125.32 1172.48,1075.94L1172.48,136.64Z" style="fill:rgb(24,24,24);"/>
    </g>
    <g id="extensions.svg" transform="matrix(36.4634,0,0,36.4634,615.727,571.691)">
        <g transform="matrix(1,0,0,1,-12,-12)">
            <clipPath id="_clip1">
                <rect x="0" y="0" width="24" height="24"/>
            </clipPath>
            <g clip-path="url(#_clip1)">
                <path d="M0,22.5L0,6L1.5,4.5L9,4.5L10.5,6L10.5,13.5L18,13.5L19.5,15L19.5,22.5L18,24L1.5,24L0,22.5ZM9,13.5L9,6L1.5,6L1.5,13.5L9,13.5ZM9,15L1.5,15L1.5,22.5L9,22.5L9,15ZM10.5,22.5L18,22.5L18,15L10.5,15L10.5,22.5Z" style="fill:white;"/>
            </g>
        </g>
    </g>
    <g id="share.svg" transform="matrix(2.25964,0,0,2.25964,874.719,360.094)">
        <g transform="matrix(1,0,0,1,-100,-100)">
            <path d="M150,125C141.169,125 133.052,128.054 126.645,133.162L86.611,108.141C87.796,102.778 87.796,97.221 86.611,91.859L126.645,66.838C133.052,71.946 141.169,75 150,75C170.711,75 187.5,58.211 187.5,37.5C187.5,16.789 170.711,0 150,0C129.289,0 112.5,16.789 112.5,37.5C112.5,40.296 112.809,43.02 113.389,45.641L73.355,70.662C66.948,65.554 58.831,62.5 50,62.5C29.289,62.5 12.5,79.289 12.5,100C12.5,120.711 29.289,137.5 50,137.5C58.831,137.5 66.948,134.446 73.355,129.338L113.389,154.359C112.797,157.032 112.499,159.762 112.5,162.5C112.5,183.211 129.289,200 150,200C170.711,200 187.5,183.211 187.5,162.5C187.5,141.789 170.711,125 150,125Z" style="fill:rgb(34,161,219);fill-rule:nonzero;"/>
        </g>
    </g>
</svg>
